<?xml version="1.0" standalone="no"?>
<!DOCTYPE svg PUBLIC "-//W3C//DTD SVG 20010904//EN"
 "http://www.w3.org/TR/2001/REC-SVG-20010904/DTD/svg10.dtd">
<svg version="1.0" xmlns="http://www.w3.org/2000/svg"
 width="512.000000pt" height="512.000000pt" viewBox="0 0 512.000000 512.000000"
 preserveAspectRatio="xMidYMid meet">

<g transform="translate(0.000000,512.000000) scale(0.100000,-0.100000)"
fill="#4E6874" stroke="none">
<path d="M2370 5113 c-367 -36 -649 -115 -949 -264 -667 -331 -1152 -930
-1340 -1657 -93 -358 -104 -771 -31 -1133 157 -779 667 -1443 1375 -1790 189
-92 304 -136 488 -184 585 -154 1199 -96 1744 165 114 55 146 75 162 101 31
51 36 101 13 152 -25 55 -71 89 -131 94 -40 4 -62 -3 -173 -56 -618 -297
-1335 -294 -1953 8 -593 290 -1035 838 -1188 1471 -50 204 -62 310 -62 540 0
240 13 342 70 565 139 544 500 1036 977 1331 649 401 1434 452 2121 137 932
-427 1457 -1438 1265 -2433 -31 -164 -17 -223 63 -269 75 -42 164 -19 215 56
25 38 58 219 75 413 30 340 -26 749 -147 1079 -51 139 -181 399 -261 521 -243
369 -586 677 -975 876 -295 150 -580 235 -907 269 -122 13 -359 17 -451 8z"/>
<path d="M2655 4146 c-37 -17 -70 -52 -84 -89 -8 -19 -11 -278 -11 -800 l-1
-772 -456 -305 c-252 -168 -466 -318 -478 -333 -28 -40 -28 -135 1 -174 33
-44 79 -66 139 -67 l54 0 507 339 c280 187 517 353 529 368 20 28 20 39 20
887 0 852 0 859 -21 886 -11 15 -32 37 -46 47 -34 25 -113 32 -153 13z"/>
<path d="M4255 2226 c-41 -18 -83 -69 -90 -109 -3 -18 -5 -334 -3 -704 3 -660
3 -672 24 -699 39 -53 71 -69 134 -69 63 0 95 16 134 69 21 27 21 36 21 726 0
690 0 699 -21 726 -11 15 -32 37 -46 47 -33 25 -113 32 -153 13z"/>
<path d="M4255 306 c-101 -44 -125 -178 -46 -257 65 -65 157 -65 222 0 124
124 -15 327 -176 257z"/>
</g>
</svg>
